<?xml version="1.0" standalone="no"?><!DOCTYPE svg PUBLIC "-//W3C//DTD SVG 20010904//EN"
    "http://www.w3.org/TR/2001/REC-SVG-20010904/DTD/svg10.dtd">
<svg version="1.0"
    xmlns="http://www.w3.org/2000/svg"
    width="1024.000000pt"
    height="1536.000000pt"
    viewBox="0 0 1024.000000 1536.000000"
    preserveAspectRatio="xMidYMid meet">

    <g
        transform="translate(0.000000,1536.000000) scale(0.100000,-0.100000)"
        fill="#000000"
        stroke="none">
        <path d="M1132 14633 c109 -2 287 -2 396 0 108 1 19 2 -198 2 -217 0 -306 -1
-198 -2z" />
        <path d="M1812 14633 c37 -2 100 -2 140 0 40 1 10 3 -67 3 -77 0 -110 -1 -73
-3z" />
        <path d="M2118 14633 c50 -2 134 -2 185 0 50 1 9 3 -93 3 -102 0 -143 -2 -92
-3z" />
        <path d="M2438 14633 c23 -2 59 -2 80 0 20 2 1 4 -43 4 -44 0 -61 -2 -37 -4z" />
        <path d="M2648 14633 c50 -2 134 -2 185 0 50 1 9 3 -93 3 -102 0 -143 -2 -92
-3z" />
        <path d="M2958 14633 c18 -2 45 -2 60 0 15 2 0 4 -33 4 -33 0 -45 -2 -27 -4z" />
        <path d="M3108 14633 c34 -2 90 -2 125 0 34 2 6 3 -63 3 -69 0 -97 -1 -62 -3z" />
        <path d="M3398 14633 c56 -2 148 -2 205 0 56 1 10 3 -103 3 -113 0 -159 -2
-102 -3z" />
        <path d="M3868 14633 c89 -2 235 -2 325 0 89 1 16 3 -163 3 -179 0 -252 -2
-162 -3z" />
        <path d="M4403 14633 c26 -2 68 -2 95 0 26 2 4 3 -48 3 -52 0 -74 -1 -47 -3z" />
        <path d="M4623 14633 c42 -2 112 -2 155 0 42 1 7 3 -78 3 -85 0 -120 -2 -77
-3z" />
        <path d="M5123 14633 c142 -2 372 -2 510 0 139 1 23 2 -258 2 -280 0 -394 -1
-252 -2z" />
        <path d="M5933 14633 c26 -2 67 -2 90 0 23 2 2 3 -48 3 -49 0 -68 -1 -42 -3z" />
        <path d="M6143 14633 c42 -2 112 -2 155 0 42 1 7 3 -78 3 -85 0 -120 -2 -77
-3z" />
        <path d="M6698 14633 c171 -2 453 -2 625 0 171 1 31 2 -313 2 -344 0 -484 -1
-312 -2z" />
        <path d="M7838 14633 c111 -2 293 -2 405 0 111 1 20 2 -203 2 -223 0 -314 -1
-202 -2z" />
        <path d="M8458 14633 c7 -3 16 -2 19 1 4 3 -2 6 -13 5 -11 0 -14 -3 -6 -6z" />
        <path d="M8503 14633 c9 -2 23 -2 30 0 6 3 -1 5 -18 5 -16 0 -22 -2 -12 -5z" />
        <path d="M8742 14633 c108 -2 288 -2 400 0 112 1 23 2 -197 2 -220 0 -311 -1
-203 -2z" />
        <path d="M9399 14621 c13 -3 28 -15 32 -26 5 -14 8 -15 8 -4 1 21 -19 39 -43
38 -18 -1 -18 -2 3 -8z" />
        <path d="M863 14435 c0 -27 2 -38 4 -22 2 15 2 37 0 50 -2 12 -4 0 -4 -28z" />
        <path d="M952 14440 c0 -14 2 -19 5 -12 2 6 2 18 0 25 -3 6 -5 1 -5 -13z" />
        <path d="M863 14335 c0 -27 2 -38 4 -22 2 15 2 37 0 50 -2 12 -4 0 -4 -28z" />
        <path d="M951 14354 c0 -11 3 -14 6 -6 3 7 2 16 -1 19 -3 4 -6 -2 -5 -13z" />
        <path d="M951 14294 c0 -11 3 -14 6 -6 3 7 2 16 -1 19 -3 4 -6 -2 -5 -13z" />
        <path d="M863 14230 c0 -30 2 -43 4 -27 2 15 2 39 0 55 -2 15 -4 2 -4 -28z" />
        <path d="M951 14204 c0 -11 3 -14 6 -6 3 7 2 16 -1 19 -3 4 -6 -2 -5 -13z" />
        <path d="M863 14105 c0 -38 2 -53 4 -32 2 20 2 52 0 70 -2 17 -4 1 -4 -38z" />
        <path d="M952 14140 c0 -14 2 -19 5 -12 2 6 2 18 0 25 -3 6 -5 1 -5 -13z" />
        <path d="M863 13980 c0 -30 2 -43 4 -27 2 15 2 39 0 55 -2 15 -4 2 -4 -28z" />
        <path d="M9342 13910 c0 -14 2 -19 5 -12 2 6 2 18 0 25 -3 6 -5 1 -5 -13z" />
        <path d="M863 13840 c0 -47 2 -66 4 -42 2 23 2 61 0 85 -2 23 -4 4 -4 -43z" />
        <path d="M9341 13854 c0 -11 3 -14 6 -6 3 7 2 16 -1 19 -3 4 -6 -2 -5 -13z" />
        <path d="M953 13790 c0 -41 2 -58 4 -37 2 20 2 54 0 75 -2 20 -4 3 -4 -38z" />
        <path d="M9342 13775 c0 -16 2 -22 5 -12 2 9 2 23 0 30 -3 6 -5 -1 -5 -18z" />
        <path d="M861 13694 c0 -11 3 -14 6 -6 3 7 2 16 -1 19 -3 4 -6 -2 -5 -13z" />
        <path d="M951 13674 c0 -11 3 -14 6 -6 3 7 2 16 -1 19 -3 4 -6 -2 -5 -13z" />
        <path d="M863 13635 c0 -22 2 -30 4 -17 2 12 2 30 0 40 -3 9 -5 -1 -4 -23z" />
        <path d="M9343 13625 c0 -22 2 -30 4 -17 2 12 2 30 0 40 -3 9 -5 -1 -4 -23z" />
        <path d="M951 13614 c0 -11 3 -14 6 -6 3 7 2 16 -1 19 -3 4 -6 -2 -5 -13z" />
        <path d="M952 13560 c0 -14 2 -19 5 -12 2 6 2 18 0 25 -3 6 -5 1 -5 -13z" />
        <path d="M863 13480 c0 -41 2 -58 4 -37 2 20 2 54 0 75 -2 20 -4 3 -4 -38z" />
        <path d="M951 13474 c0 -11 3 -14 6 -6 3 7 2 16 -1 19 -3 4 -6 -2 -5 -13z" />
        <path d="M9341 13434 c0 -11 3 -14 6 -6 3 7 2 16 -1 19 -3 4 -6 -2 -5 -13z" />
        <path d="M862 13370 c0 -14 2 -19 5 -12 2 6 2 18 0 25 -3 6 -5 1 -5 -13z" />
        <path d="M862 13315 c0 -16 2 -22 5 -12 2 9 2 23 0 30 -3 6 -5 -1 -5 -18z" />
        <path d="M953 13260 c0 -25 2 -35 4 -22 2 12 2 32 0 45 -2 12 -4 2 -4 -23z" />
        <path d="M864 13080 c0 -113 2 -159 3 -102 2 56 2 148 0 205 -1 56 -3 10 -3
-103z" />
        <path d="M9341 13264 c0 -11 3 -14 6 -6 3 7 2 16 -1 19 -3 4 -6 -2 -5 -13z" />
        <path d="M9432 13030 c0 -19 2 -27 5 -17 2 9 2 25 0 35 -3 9 -5 1 -5 -18z" />
        <path d="M951 13024 c0 -11 3 -14 6 -6 3 7 2 16 -1 19 -3 4 -6 -2 -5 -13z" />
        <path d="M951 12984 c0 -11 3 -14 6 -6 3 7 2 16 -1 19 -3 4 -6 -2 -5 -13z" />
        <path d="M9431 12924 c0 -11 3 -14 6 -6 3 7 2 16 -1 19 -3 4 -6 -2 -5 -13z" />
        <path d="M864 12710 c0 -91 2 -128 3 -82 2 45 2 119 0 165 -1 45 -3 8 -3 -83z" />
        <path d="M951 12824 c0 -11 3 -14 6 -6 3 7 2 16 -1 19 -3 4 -6 -2 -5 -13z" />
        <path d="M9433 12785 c0 -33 2 -45 4 -27 2 18 2 45 0 60 -2 15 -4 0 -4 -33z" />
        <path d="M863 12495 c0 -27 2 -38 4 -22 2 15 2 37 0 50 -2 12 -4 0 -4 -28z" />
        <path d="M9431 12524 c0 -11 3 -14 6 -6 3 7 2 16 -1 19 -3 4 -6 -2 -5 -13z" />
        <path d="M862 12420 c0 -14 2 -19 5 -12 2 6 2 18 0 25 -3 6 -5 1 -5 -13z" />
        <path d="M9432 12365 c0 -16 2 -22 5 -12 2 9 2 23 0 30 -3 6 -5 -1 -5 -18z" />
        <path d="M863 12325 c0 -33 2 -45 4 -27 2 18 2 45 0 60 -2 15 -4 0 -4 -33z" />
        <path d="M951 12294 c0 -11 3 -14 6 -6 3 7 2 16 -1 19 -3 4 -6 -2 -5 -13z" />
        <path d="M863 12200 c0 -36 2 -50 4 -32 2 17 2 47 0 65 -2 17 -4 3 -4 -33z" />
        <path d="M951 12174 c0 -11 3 -14 6 -6 3 7 2 16 -1 19 -3 4 -6 -2 -5 -13z" />
        <path d="M9342 12170 c0 -14 2 -19 5 -12 2 6 2 18 0 25 -3 6 -5 1 -5 -13z" />
        <path d="M9342 12120 c0 -14 2 -19 5 -12 2 6 2 18 0 25 -3 6 -5 1 -5 -13z" />
        <path d="M863 12060 c0 -41 2 -58 4 -37 2 20 2 54 0 75 -2 20 -4 3 -4 -38z" />
        <path d="M5089 12053 c-13 -16 -12 -17 4 -4 9 7 17 15 17 17 0 8 -8 3 -21 -13z" />
        <path d="M5178 12052 c9 -10 19 -17 21 -16 6 5 -20 34 -30 34 -5 0 -1 -8 9
-18z" />
        <path d="M5201 12004 c0 -11 3 -14 6 -6 3 7 2 16 -1 19 -3 4 -6 -2 -5 -13z" />
        <path d="M862 11920 c0 -14 2 -19 5 -12 2 6 2 18 0 25 -3 6 -5 1 -5 -13z" />
        <path d="M863 11855 c0 -22 2 -30 4 -17 2 12 2 30 0 40 -3 9 -5 -1 -4 -23z" />
        <path d="M6125 11840 c-3 -6 1 -7 9 -4 18 7 21 14 7 14 -6 0 -13 -4 -16 -10z" />
        <path d="M953 11795 c0 -27 2 -38 4 -22 2 15 2 37 0 50 -2 12 -4 0 -4 -28z" />
        <path d="M6221 11823 c7 -12 15 -20 18 -17 3 2 -3 12 -13 22 -17 16 -18 16 -5
-5z" />
        <path d="M4052 11785 c0 -16 2 -22 5 -12 2 9 2 23 0 30 -3 6 -5 -1 -5 -18z" />
        <path d="M864 11580 c0 -124 2 -174 3 -112 2 61 2 163 0 225 -1 61 -3 11 -3
-113z" />
        <path d="M6241 11774 c0 -11 3 -14 6 -6 3 7 2 16 -1 19 -3 4 -6 -2 -5 -13z" />
        <path d="M6082 11755 c-17 -37 -14 -45 4 -12 9 16 14 31 11 33 -2 2 -9 -7 -15
-21z" />
        <path d="M5064 11685 c0 -49 1 -71 3 -48 2 23 2 64 0 90 -2 26 -3 8 -3 -42z" />
        <path d="M9341 11694 c0 -11 3 -14 6 -6 3 7 2 16 -1 19 -3 4 -6 -2 -5 -13z" />
        <path d="M6202 11675 c-17 -37 -14 -45 4 -12 9 16 14 31 11 33 -2 2 -9 -7 -15
-21z" />
        <path d="M6046 11673 c-6 -14 -5 -15 5 -6 7 7 10 15 7 18 -3 3 -9 -2 -12 -12z" />
        <path d="M4240 11635 c0 -5 5 -17 10 -25 5 -8 10 -10 10 -5 0 6 -5 17 -10 25
-5 8 -10 11 -10 5z" />
        <path d="M952 11605 c0 -16 2 -22 5 -12 2 9 2 23 0 30 -3 6 -5 -1 -5 -18z" />
        <path d="M6016 11605 c-9 -26 -7 -32 5 -12 6 10 9 21 6 23 -2 3 -7 -2 -11 -11z" />
        <path d="M952 11520 c0 -19 2 -27 5 -17 2 9 2 25 0 35 -3 9 -5 1 -5 -18z" />
        <path d="M5064 11445 c0 -60 1 -84 3 -52 2 32 2 81 0 110 -2 29 -3 3 -3 -58z" />
        <path d="M4280 11535 c0 -5 5 -17 10 -25 5 -8 10 -10 10 -5 0 6 -5 17 -10 25
-5 8 -10 11 -10 5z" />
        <path d="M5966 11485 c-9 -26 -7 -32 5 -12 6 10 9 21 6 23 -2 3 -7 -2 -11 -11z" />
        <path d="M4180 11415 c0 -5 5 -17 10 -25 5 -8 10 -10 10 -5 0 6 -5 17 -10 25
-5 8 -10 11 -10 5z" />
        <path d="M5916 11363 c-6 -14 -5 -15 5 -6 7 7 10 15 7 18 -3 3 -9 -2 -12 -12z" />
        <path d="M863 11275 c0 -44 2 -61 4 -37 2 23 2 59 0 80 -2 20 -4 1 -4 -43z" />
        <path d="M5061 11314 c0 -11 3 -14 6 -6 3 7 2 16 -1 19 -3 4 -6 -2 -5 -13z" />
        <path d="M952 11285 c0 -16 2 -22 5 -12 2 9 2 23 0 30 -3 6 -5 -1 -5 -18z" />
        <path d="M3191 11286 c-17 -18 -21 -33 -18 -57 l4 -34 1 37 c2 26 9 42 28 57
15 12 22 21 17 21 -5 0 -20 -11 -32 -24z" />
        <path d="M3261 11298 c3 -2 45 -41 94 -88 l90 -85 -85 88 c-46 48 -89 87 -94
87 -5 0 -7 -1 -5 -2z" />
        <path d="M7018 11283 c7 -3 16 -2 19 1 4 3 -2 6 -13 5 -11 0 -14 -3 -6 -6z" />
        <path d="M6975 11270 c-3 -6 1 -7 9 -4 18 7 21 14 7 14 -6 0 -13 -4 -16 -10z" />
        <path d="M952 11205 c0 -16 2 -22 5 -12 2 9 2 23 0 30 -3 6 -5 -1 -5 -18z" />
        <path d="M4400 11225 c0 -5 5 -17 10 -25 5 -8 10 -10 10 -5 0 6 -5 17 -10 25
-5 8 -10 11 -10 5z" />
        <path d="M9341 11214 c0 -11 3 -14 6 -6 3 7 2 16 -1 19 -3 4 -6 -2 -5 -13z" />
        <path d="M5846 11205 c-9 -26 -7 -32 5 -12 6 10 9 21 6 23 -2 3 -7 -2 -11 -11z" />
        <path d="M6875 11168 l-40 -43 43 40 c39 36 47 45 39 45 -2 0 -21 -19 -42 -42z" />
        <path d="M3190 11176 c0 -2 8 -10 18 -17 15 -13 16 -12 3 4 -13 16 -21 21 -21
13z" />
        <path d="M7030 11126 c-25 -24 -54 -54 -65 -67 -10 -13 11 5 48 41 61 59 72
70 65 70 -2 0 -23 -20 -48 -44z" />
        <path d="M5102 11144 c9 -9 21 -15 27 -13 6 2 -2 10 -17 17 -25 11 -25 11 -10
-4z" />
        <path d="M5975 11149 c-4 -6 -5 -12 -2 -15 2 -3 7 2 10 11 7 17 1 20 -8 4z" />
        <path d="M9342 11120 c0 -14 2 -19 5 -12 2 6 2 18 0 25 -3 6 -5 1 -5 -13z" />
        <path d="M861 11114 c0 -11 3 -14 6 -6 3 7 2 16 -1 19 -3 4 -6 -2 -5 -13z" />
        <path d="M3270 11095 c19 -19 36 -35 39 -35 3 0 -10 16 -29 35 -19 19 -36 35
-39 35 -3 0 10 -16 29 -35z" />
        <path d="M3510 11058 c41 -45 50 -53 50 -45 0 2 -21 23 -47 47 l-48 45 45 -47z" />
        <path d="M862 11055 c0 -16 2 -22 5 -12 2 9 2 23 0 30 -3 6 -5 -1 -5 -18z" />
        <path d="M4451 11061 c0 -14 -9 -34 -18 -45 -17 -20 -17 -20 6 0 15 14 21 29
18 45 l-4 24 -2 -24z" />
        <path d="M9341 11064 c0 -11 3 -14 6 -6 3 7 2 16 -1 19 -3 4 -6 -2 -5 -13z" />
        <path d="M3350 11015 c19 -19 36 -35 39 -35 3 0 -10 16 -29 35 -19 19 -36 35
-39 35 -3 0 10 -16 29 -35z" />
        <path d="M6721 11024 c-13 -14 -22 -27 -19 -29 2 -3 15 6 28 20 13 14 21 27
19 29 -2 3 -15 -6 -28 -20z" />
        <path d="M5897 11019 c-10 -6 -30 -8 -45 -5 -20 5 -23 4 -12 -4 21 -14 43 -12
66 5 22 17 17 19 -9 4z" />
        <path d="M863 10945 c0 -38 2 -53 4 -32 2 20 2 52 0 70 -2 17 -4 1 -4 -38z" />
        <path d="M4359 10997 c5 -5 19 -7 32 -5 20 3 19 5 -9 9 -20 3 -29 2 -23 -4z" />
        <path d="M3620 10945 c19 -19 36 -35 39 -35 3 0 -10 16 -29 35 -19 19 -36 35
-39 35 -3 0 10 -16 29 -35z" />
        <path d="M6849 10943 l-34 -38 38 34 c20 19 37 36 37 38 0 8 -8 0 -41 -34z" />
        <path d="M6615 10918 l-50 -53 53 50 c48 46 57 55 49 55 -1 0 -25 -24 -52 -52z" />
        <path d="M3440 10925 c13 -14 26 -25 28 -25 3 0 -5 11 -18 25 -13 14 -26 25
-28 25 -3 0 5 -11 18 -25z" />
        <path d="M951 10894 c0 -11 3 -14 6 -6 3 7 2 16 -1 19 -3 4 -6 -2 -5 -13z" />
        <path d="M3520 10848 c41 -45 50 -53 50 -45 0 2 -21 23 -47 47 l-48 45 45 -47z" />
        <path d="M3680 10887 c0 -2 15 -16 33 -33 l32 -29 -29 33 c-28 30 -36 37 -36
29z" />
        <path d="M6775 10872 c-11 -9 -27 -26 -35 -37 -8 -11 3 -4 23 14 33 31 42 42
35 41 -2 -1 -12 -8 -23 -18z" />
        <path d="M6519 10823 c-13 -16 -12 -17 4 -4 16 13 21 21 13 21 -2 0 -10 -8
-17 -17z" />
        <path d="M6479 10783 c-13 -16 -12 -17 4 -4 9 7 17 15 17 17 0 8 -8 3 -21 -13z" />
        <path d="M3590 10776 c0 -2 8 -10 18 -17 15 -13 16 -12 3 4 -13 16 -21 21 -21
13z" />
        <path d="M4963 10753 c9 -2 25 -2 35 0 9 3 1 5 -18 5 -19 0 -27 -2 -17 -5z" />
        <path d="M5238 10753 c12 -2 30 -2 40 0 9 3 -1 5 -23 4 -22 0 -30 -2 -17 -4z" />
        <path d="M4908 10743 c6 -2 18 -2 25 0 6 3 1 5 -13 5 -14 0 -19 -2 -12 -5z" />
        <path d="M5338 10743 c7 -3 16 -2 19 1 4 3 -2 6 -13 5 -11 0 -14 -3 -6 -6z" />
        <path d="M6429 10733 c-13 -16 -12 -17 4 -4 16 13 21 21 13 21 -2 0 -10 -8
-17 -17z" />
        <path d="M3665 10700 c21 -22 41 -40 44 -40 3 0 -13 18 -34 40 -21 22 -41 40
-44 40 -3 0 13 -18 34 -40z" />
        <path d="M6585 10688 l-40 -43 43 40 c39 36 47 45 39 45 -2 0 -21 -19 -42 -42z" />
        <path d="M5488 10713 c7 -3 16 -2 19 1 4 3 -2 6 -13 5 -11 0 -14 -3 -6 -6z" />
        <path d="M9431 10704 c0 -11 3 -14 6 -6 3 7 2 16 -1 19 -3 4 -6 -2 -5 -13z" />
        <path d="M5540 10700 c8 -5 22 -9 30 -9 10 0 8 3 -5 9 -27 12 -43 12 -25 0z" />
        <path d="M4670 10690 c-18 -12 -2 -12 25 0 13 6 15 9 5 9 -8 0 -22 -4 -30 -9z" />
        <path d="M5600 10680 c8 -5 22 -9 30 -9 10 0 8 3 -5 9 -27 12 -43 12 -25 0z" />
        <path d="M6391 10644 c0 -11 3 -14 6 -6 3 7 2 16 -1 19 -3 4 -6 -2 -5 -13z" />
        <path d="M3826 10635 c-11 -8 -15 -15 -9 -15 6 0 16 7 23 15 16 19 11 19 -14
0z" />
        <path d="M3737 10629 c7 -7 15 -10 18 -7 3 3 -2 9 -12 12 -14 6 -15 5 -6 -5z" />
        <path d="M5721 10636 c2 -2 15 -9 29 -15 24 -11 24 -11 6 3 -16 13 -49 24 -35
12z" />
        <path d="M4455 10600 c-3 -6 1 -7 9 -4 18 7 21 14 7 14 -6 0 -13 -4 -16 -10z" />
        <path d="M6490 10595 c-11 -13 -10 -14 4 -9 9 3 16 10 16 15 0 13 -6 11 -20
-6z" />
        <path d="M4394 10564 c-18 -14 -18 -15 4 -4 12 6 22 13 22 15 0 8 -5 6 -26
-11z" />
        <path d="M4344 10534 c-18 -14 -18 -15 4 -4 12 6 22 13 22 15 0 8 -5 6 -26
-11z" />
        <path d="M952 10520 c0 -14 2 -19 5 -12 2 6 2 18 0 25 -3 6 -5 1 -5 -13z" />
        <path d="M9343 10505 c0 -22 2 -30 4 -17 2 12 2 30 0 40 -3 9 -5 -1 -4 -23z" />
        <path d="M862 10490 c0 -19 2 -27 5 -17 2 9 2 25 0 35 -3 9 -5 1 -5 -18z" />
        <path d="M2672 10504 c-12 -8 -22 -20 -22 -26 0 -7 6 -4 13 6 7 10 29 21 47
26 29 7 31 8 10 9 -14 1 -36 -6 -48 -15z" />
        <path d="M7555 10503 c17 -3 37 -10 45 -16 13 -10 13 -10 1 6 -8 10 -25 16
-45 16 l-31 -2 30 -4z" />
        <path d="M5970 10496 c0 -2 8 -10 18 -17 15 -13 16 -12 3 4 -13 16 -21 21 -21
13z" />
        <path d="M952 10450 c0 -14 2 -19 5 -12 2 6 2 18 0 25 -3 6 -5 1 -5 -13z" />
        <path d="M6010 10466 c0 -2 8 -10 18 -17 15 -13 16 -12 3 4 -13 16 -21 21 -21
13z" />
        <path d="M2641 10444 c0 -11 3 -14 6 -6 3 7 2 16 -1 19 -3 4 -6 -2 -5 -13z" />
        <path d="M9342 10435 c0 -16 2 -22 5 -12 2 9 2 23 0 30 -3 6 -5 -1 -5 -18z" />
        <path d="M4194 10428 l-19 -23 23 19 c12 11 22 21 22 23 0 8 -8 2 -26 -19z" />
        <path d="M863 10405 c0 -22 2 -30 4 -17 2 12 2 30 0 40 -3 9 -5 -1 -4 -23z" />
        <path d="M6074 10413 c16 -18 32 -31 34 -28 3 3 3 6 1 8 -2 1 -17 13 -34 27
l-30 25 29 -32z" />
        <path d="M7611 10421 c-1 -8 -9 -24 -18 -35 -16 -20 -16 -20 6 0 13 12 21 28
18 35 -4 11 -6 11 -6 0z" />
        <path d="M2656 10406 c3 -8 13 -17 22 -21 13 -5 13 -2 -3 15 -21 24 -26 25
-19 6z" />
        <path d="M951 10394 c0 -11 3 -14 6 -6 3 7 2 16 -1 19 -3 4 -6 -2 -5 -13z" />
        <path d="M4114 10358 l-29 -33 33 29 c30 28 37 36 29 36 -2 0 -16 -15 -33 -32z" />
        <path d="M6155 10340 c21 -22 41 -40 44 -40 3 0 -13 18 -34 40 -21 22 -41 40
-44 40 -3 0 13 -18 34 -40z" />
        <path d="M3067 10339 c7 -7 15 -10 18 -7 3 3 -2 9 -12 12 -14 6 -15 5 -6 -5z" />
        <path d="M9343 10270 c0 -36 2 -50 4 -32 2 17 2 47 0 65 -2 17 -4 3 -4 -33z" />
        <path d="M4035 10278 l-40 -43 43 40 c23 21 42 40 42 42 0 8 -9 0 -45 -39z" />
        <path d="M7120 10300 c-8 -5 -10 -10 -5 -10 6 0 17 5 25 10 8 5 11 10 5 10 -5
0 -17 -5 -25 -10z" />
        <path d="M2850 10296 c0 -2 7 -7 16 -10 8 -3 12 -2 9 4 -6 10 -25 14 -25 6z" />
        <path d="M7394 10284 c-18 -14 -18 -15 4 -4 12 6 22 13 22 15 0 8 -5 6 -26
-11z" />
        <path d="M7080 10280 c-9 -6 -10 -10 -3 -10 6 0 15 5 18 10 8 12 4 12 -15 0z" />
        <path d="M861 10264 c0 -11 3 -14 6 -6 3 7 2 16 -1 19 -3 4 -6 -2 -5 -13z" />
        <path d="M951 10254 c0 -11 3 -14 6 -6 3 7 2 16 -1 19 -3 4 -6 -2 -5 -13z" />
        <path d="M2920 10266 c0 -3 9 -10 20 -16 11 -6 20 -8 20 -6 0 3 -9 10 -20 16
-11 6 -20 8 -20 6z" />
        <path d="M6230 10256 c0 -2 8 -10 18 -17 15 -13 16 -12 3 4 -13 16 -21 21 -21
13z" />
        <path d="M3974 10208 c-30 -34 -47 -58 -42 -58 3 0 19 18 37 40 34 43 38 55 5
18z" />
        <path d="M6260 10216 c0 -2 8 -10 18 -17 15 -13 16 -12 3 4 -13 16 -21 21 -21
13z" />
        <path d="M861 10194 c0 -11 3 -14 6 -6 3 7 2 16 -1 19 -3 4 -6 -2 -5 -13z" />
        <path d="M3350 10196 c0 -3 14 -12 30 -21 17 -9 30 -13 30 -11 0 3 -13 12 -30
21 -16 9 -30 13 -30 11z" />
        <path d="M9343 10115 c0 -44 2 -61 4 -37 2 23 2 59 0 80 -2 20 -4 1 -4 -43z" />
        <path d="M6855 10170 c-3 -6 1 -7 9 -4 18 7 21 14 7 14 -6 0 -13 -4 -16 -10z" />
        <path d="M9431 10164 c0 -11 3 -14 6 -6 3 7 2 16 -1 19 -3 4 -6 -2 -5 -13z" />
        <path d="M3420 10156 c0 -2 7 -7 16 -10 8 -3 12 -2 9 4 -6 10 -25 14 -25 6z" />
        <path d="M3460 10136 c0 -2 8 -10 18 -17 15 -13 16 -12 3 4 -13 16 -21 21 -21
13z" />
        <path d="M6786 10125 c-3 -9 -5 -29 -5 -43 1 -20 3 -17 9 13 8 43 7 57 -4 30z" />
        <path d="M3201 10116 c2 -2 15 -9 29 -15 24 -11 24 -11 6 3 -16 13 -49 24 -35
12z" />
        <path d="M6345 10096 c10 -14 19 -26 22 -26 7 0 -17 39 -28 46 -6 3 -3 -5 6
-20z" />
        <path d="M3874 10068 c-4 -7 -14 -24 -22 -38 -14 -24 -13 -24 3 -5 20 24 37
55 31 55 -3 0 -8 -6 -12 -12z" />
        <path d="M3307 10059 c7 -7 15 -10 18 -7 3 3 -2 9 -12 12 -14 6 -15 5 -6 -5z" />
        <path d="M6940 10060 c-9 -6 -10 -10 -3 -10 6 0 15 5 18 10 8 12 4 12 -15 0z" />
        <path d="M3476 10043 c-6 -14 -5 -15 5 -6 7 7 10 15 7 18 -3 3 -9 -2 -12 -12z" />
        <path d="M3408 10023 c12 -2 30 -2 40 0 9 3 -1 5 -23 4 -22 0 -30 -2 -17 -4z" />
        <path d="M6417 9975 c15 -30 29 -53 31 -51 4 5 -46 106 -53 106 -3 0 7 -25 22
-55z" />
        <path d="M6843 10023 c9 -2 25 -2 35 0 9 3 1 5 -18 5 -19 0 -27 -2 -17 -5z" />
        <path d="M9342 9995 c0 -16 2 -22 5 -12 2 9 2 23 0 30 -3 6 -5 -1 -5 -18z" />
        <path d="M9433 9980 c0 -25 2 -35 4 -22 2 12 2 32 0 45 -2 12 -4 2 -4 -23z" />
        <path d="M3795 9929 c-4 -6 -5 -12 -2 -15 2 -3 7 2 10 11 7 17 1 20 -8 4z" />
        <path d="M9432 9900 c0 -14 2 -19 5 -12 2 6 2 18 0 25 -3 6 -5 1 -5 -13z" />
        <path d="M951 9894 c0 -11 3 -14 6 -6 3 7 2 16 -1 19 -3 4 -6 -2 -5 -13z" />
        <path d="M862 9865 c0 -16 2 -22 5 -12 2 9 2 23 0 30 -3 6 -5 -1 -5 -18z" />
        <path d="M9341 9784 c0 -11 3 -14 6 -6 3 7 2 16 -1 19 -3 4 -6 -2 -5 -13z" />
        <path d="M9432 9755 c0 -16 2 -22 5 -12 2 9 2 23 0 30 -3 6 -5 -1 -5 -18z" />
        <path d="M3721 9729 c-7 -22 -11 -43 -8 -45 2 -2 9 14 16 37 7 22 11 43 8 45
-2 2 -9 -14 -16 -37z" />
        <path d="M9433 9625 c0 -33 2 -45 4 -27 2 18 2 45 0 60 -2 15 -4 0 -4 -33z" />
        <path d="M3702 9650 c0 -14 2 -19 5 -12 2 6 2 18 0 25 -3 6 -5 1 -5 -13z" />
        <path d="M6542 9630 c0 -14 2 -19 5 -12 2 6 2 18 0 25 -3 6 -5 1 -5 -13z" />
        <path d="M952 9605 c0 -16 2 -22 5 -12 2 9 2 23 0 30 -3 6 -5 -1 -5 -18z" />
        <path d="M861 9604 c0 -11 3 -14 6 -6 3 7 2 16 -1 19 -3 4 -6 -2 -5 -13z" />
        <path d="M3692 9600 c0 -14 2 -19 5 -12 2 6 2 18 0 25 -3 6 -5 1 -5 -13z" />
        <path d="M6552 9580 c0 -14 2 -19 5 -12 2 6 2 18 0 25 -3 6 -5 1 -5 -13z" />
        <path d="M861 9564 c0 -11 3 -14 6 -6 3 7 2 16 -1 19 -3 4 -6 -2 -5 -13z" />
        <path d="M3682 9550 c0 -14 2 -19 5 -12 2 6 2 18 0 25 -3 6 -5 1 -5 -13z" />
        <path d="M862 9515 c0 -16 2 -22 5 -12 2 9 2 23 0 30 -3 6 -5 -1 -5 -18z" />
        <path d="M9432 9510 c0 -19 2 -27 5 -17 2 9 2 25 0 35 -3 9 -5 1 -5 -18z" />
        <path d="M6561 9514 c0 -11 3 -14 6 -6 3 7 2 16 -1 19 -3 4 -6 -2 -5 -13z" />
        <path d="M3670 9500 c0 -5 5 -10 11 -10 5 0 7 5 4 10 -3 6 -8 10 -11 10 -2 0
-4 -4 -4 -10z" />
        <path d="M861 9464 c0 -11 3 -14 6 -6 3 7 2 16 -1 19 -3 4 -6 -2 -5 -13z" />
        <path d="M9341 9464 c0 -11 3 -14 6 -6 3 7 2 16 -1 19 -3 4 -6 -2 -5 -13z" />
        <path d="M951 9454 c0 -11 3 -14 6 -6 3 7 2 16 -1 19 -3 4 -6 -2 -5 -13z" />
        <path d="M6458 9433 c7 -3 16 -2 19 1 4 3 -2 6 -13 5 -11 0 -14 -3 -6 -6z" />
        <path d="M7098 9428 c-98 -7 -265 -49 -543 -138 -426 -135 -731 -301 -1075
-583 -87 -72 -192 -179 -295 -300 l-40 -47 -45 57 c-76 98 -240 262 -345 346
-96 78 -230 168 -427 289 -225 138 -557 260 -863 318 -66 12 -142 29 -169 37
-32 9 -122 16 -260 20 l-211 6 -28 -24 c-18 -16 -39 -57 -61 -119 -19 -52 -64
-171 -101 -265 -36 -93 -95 -249 -132 -345 -123 -325 -225 -584 -315 -800 -22
-52 -40 -109 -40 -128 0 -55 13 -62 123 -62 l99 0 -25 -52 c-13 -29 -49 -114
-80 -188 -31 -74 -94 -214 -141 -310 -102 -212 -106 -240 -45 -301 46 -46 61
-48 167 -14 98 31 187 50 362 76 74 11 156 24 181 29 171 34 982 48 1251 21
251 -24 691 -109 699 -134 2 -7 27 -34 55 -62 146 -142 388 -173 566 -71 57
32 120 86 143 122 14 22 34 38 57 44 78 21 340 69 415 75 44 4 125 13 180 21
145 20 801 30 1040 15 272 -17 511 -50 788 -112 149 -32 194 -24 237 46 26 42
25 71 -2 122 -62 113 -169 326 -198 393 -18 41 -44 100 -57 130 -14 30 -36 78
-49 107 l-23 52 67 6 c99 9 112 13 124 40 10 21 4 39 -40 135 -29 60 -52 112
-52 115 0 3 -34 81 -76 173 -42 92 -96 212 -119 267 -24 55 -66 152 -95 215
-28 63 -82 183 -120 265 -37 83 -84 192 -104 244 -48 121 -98 221 -124 244
-26 24 -130 34 -254 25z m147 -115 c26 -25 57 -80 97 -168 20 -44 54 -118 76
-165 22 -47 67 -146 100 -220 113 -256 316 -695 388 -844 24 -49 44 -89 44
-90 0 -1 -66 0 -147 0 -82 1 -184 -2 -228 -6 -44 -5 -138 -13 -210 -20 -197
-18 -350 -38 -450 -60 -49 -11 -171 -38 -270 -59 -304 -67 -657 -196 -870
-318 -143 -81 -358 -229 -464 -318 l-103 -88 6 639 7 639 26 40 c97 148 275
334 425 444 46 33 103 75 128 94 211 158 722 376 1085 463 88 21 228 43 332
53 6 1 19 -6 28 -16z m-4145 -8 c133 -10 173 -15 300 -42 278 -57 503 -139
824 -299 281 -141 572 -375 782 -630 l83 -101 -9 -149 c-5 -82 -9 -360 -10
-618 0 -258 -4 -474 -7 -479 -3 -5 -8 -5 -12 0 -3 5 -42 38 -86 74 -262 214
-645 421 -992 538 -150 51 -554 141 -693 155 -121 12 -360 37 -441 46 -47 6
-188 10 -313 10 -213 0 -228 1 -221 18 4 9 27 69 50 132 65 175 93 247 130
340 19 47 63 162 99 255 216 570 291 747 318 758 7 3 38 4 68 2 30 -3 89 -7
130 -10z" />
        <path d="M3918 9423 c7 -3 16 -2 19 1 4 3 -2 6 -13 5 -11 0 -14 -3 -6 -6z" />
        <path d="M9432 9410 c0 -14 2 -19 5 -12 2 6 2 18 0 25 -3 6 -5 1 -5 -13z" />
        <path d="M862 9375 c0 -16 2 -22 5 -12 2 9 2 23 0 30 -3 6 -5 -1 -5 -18z" />
        <path d="M9342 9380 c0 -14 2 -19 5 -12 2 6 2 18 0 25 -3 6 -5 1 -5 -13z" />
        <path d="M9432 9350 c0 -14 2 -19 5 -12 2 6 2 18 0 25 -3 6 -5 1 -5 -13z" />
        <path d="M4140 9340 c8 -5 20 -10 25 -10 6 0 3 5 -5 10 -8 5 -19 10 -25 10 -5
0 -3 -5 5 -10z" />
        <path d="M861 9324 c0 -11 3 -14 6 -6 3 7 2 16 -1 19 -3 4 -6 -2 -5 -13z" />
        <path d="M6150 9330 c-8 -5 -10 -10 -5 -10 6 0 17 5 25 10 8 5 11 10 5 10 -5
0 -17 -5 -25 -10z" />
        <path d="M6080 9300 c-8 -5 -10 -10 -5 -10 6 0 17 5 25 10 8 5 11 10 5 10 -5
0 -17 -5 -25 -10z" />
        <path d="M4260 9286 c0 -2 7 -7 16 -10 8 -3 12 -2 9 4 -6 10 -25 14 -25 6z" />
        <path d="M5995 9260 c-3 -6 1 -7 9 -4 18 7 21 14 7 14 -6 0 -13 -4 -16 -10z" />
        <path d="M5955 9240 c-3 -6 1 -7 9 -4 18 7 21 14 7 14 -6 0 -13 -4 -16 -10z" />
        <path d="M863 9195 c0 -27 2 -38 4 -22 2 15 2 37 0 50 -2 12 -4 0 -4 -28z" />
        <path d="M4380 9216 c0 -2 7 -7 16 -10 8 -3 12 -2 9 4 -6 10 -25 14 -25 6z" />
        <path d="M5900 9210 c-9 -6 -10 -10 -3 -10 6 0 15 5 18 10 8 12 4 12 -15 0z" />
        <path d="M9431 9194 c0 -11 3 -14 6 -6 3 7 2 16 -1 19 -3 4 -6 -2 -5 -13z" />
        <path d="M4420 9197 c0 -2 15 -14 33 -27 20 -15 27 -17 18 -6 -13 16 -51 41
-51 33z" />
        <path d="M4490 9146 c0 -2 8 -10 18 -17 15 -13 16 -12 3 4 -13 16 -21 21 -21
13z" />
        <path d="M863 9075 c0 -38 2 -53 4 -32 2 20 2 52 0 70 -2 17 -4 1 -4 -38z" />
        <path d="M4560 9096 c0 -2 8 -10 18 -17 15 -13 16 -12 3 4 -13 16 -21 21 -21
13z" />
        <path d="M9431 9084 c0 -11 3 -14 6 -6 3 7 2 16 -1 19 -3 4 -6 -2 -5 -13z" />
        <path d="M5685 9064 l-30 -26 33 22 c17 12 32 23 32 26 0 7 -4 5 -35 -22z" />
        <path d="M4615 9050 c10 -11 20 -20 23 -20 3 0 -3 9 -13 20 -10 11 -20 20 -23
20 -3 0 3 -9 13 -20z" />
        <path d="M5624 9018 l-19 -23 23 19 c21 18 27 26 19 26 -2 0 -12 -10 -23 -22z" />
        <path d="M9431 9014 c0 -11 3 -14 6 -6 3 7 2 16 -1 19 -3 4 -6 -2 -5 -13z" />
        <path d="M4720 8965 c13 -14 26 -25 28 -25 3 0 -5 11 -18 25 -13 14 -26 25
-28 25 -3 0 5 -11 18 -25z" />
        <path d="M862 8950 c0 -19 2 -27 5 -17 2 9 2 25 0 35 -3 9 -5 1 -5 -18z" />
        <path d="M9342 8960 c0 -14 2 -19 5 -12 2 6 2 18 0 25 -3 6 -5 1 -5 -13z" />
        <path d="M5534 8948 l-19 -23 23 19 c21 18 27 26 19 26 -2 0 -12 -10 -23 -22z" />
        <path d="M4800 8895 c19 -19 36 -35 39 -35 3 0 -10 16 -29 35 -19 19 -36 35
-39 35 -3 0 10 -16 29 -35z" />
        <path d="M863 8855 c0 -33 2 -45 4 -27 2 18 2 45 0 60 -2 15 -4 0 -4 -33z" />
        <path d="M5409 8843 l-24 -28 28 24 c15 14 27 26 27 28 0 8 -8 1 -31 -24z" />
        <path d="M4904 8803 c28 -29 52 -50 55 -48 2 3 2 6 0 8 -2 1 -27 22 -54 47
l-50 45 49 -52z" />
        <path d="M9341 8834 c0 -11 3 -14 6 -6 3 7 2 16 -1 19 -3 4 -6 -2 -5 -13z" />
        <path d="M9433 8815 c0 -22 2 -30 4 -17 2 12 2 30 0 40 -3 9 -5 -1 -4 -23z" />
        <path d="M5254 8698 c-65 -67 -123 -121 -127 -120 -5 1 -5 -3 -2 -9 4 -6 10
-7 14 -2 4 4 61 63 126 131 65 67 116 122 113 122 -2 0 -58 -55 -124 -122z" />
        <path d="M9341 8784 c0 -11 3 -14 6 -6 3 7 2 16 -1 19 -3 4 -6 -2 -5 -13z" />
        <path d="M864 8535 c0 -132 2 -185 3 -117 2 68 2 176 0 240 -1 64 -3 9 -3
-123z" />
        <path d="M9431 8714 c0 -11 3 -14 6 -6 3 7 2 16 -1 19 -3 4 -6 -2 -5 -13z" />
        <path d="M5045 8658 c32 -38 60 -68 63 -68 6 0 -73 93 -99 115 -13 11 3 -10
36 -47z" />
        <path d="M9342 8680 c0 -14 2 -19 5 -12 2 6 2 18 0 25 -3 6 -5 1 -5 -13z" />
        <path d="M9433 8655 c0 -22 2 -30 4 -17 2 12 2 30 0 40 -3 9 -5 -1 -4 -23z" />
        <path d="M953 8645 c0 -22 2 -30 4 -17 2 12 2 30 0 40 -3 9 -5 -1 -4 -23z" />
        <path d="M951 8574 c0 -11 3 -14 6 -6 3 7 2 16 -1 19 -3 4 -6 -2 -5 -13z" />
        <path d="M9431 8534 c0 -11 3 -14 6 -6 3 7 2 16 -1 19 -3 4 -6 -2 -5 -13z" />
        <path d="M9342 8500 c0 -14 2 -19 5 -12 2 6 2 18 0 25 -3 6 -5 1 -5 -13z" />
        <path d="M951 8434 c0 -11 3 -14 6 -6 3 7 2 16 -1 19 -3 4 -6 -2 -5 -13z" />
        <path d="M9432 8420 c0 -19 2 -27 5 -17 2 9 2 25 0 35 -3 9 -5 1 -5 -18z" />
        <path d="M952 8370 c0 -19 2 -27 5 -17 2 9 2 25 0 35 -3 9 -5 1 -5 -18z" />
        <path d="M9342 8360 c0 -14 2 -19 5 -12 2 6 2 18 0 25 -3 6 -5 1 -5 -13z" />
        <path d="M952 8300 c0 -19 2 -27 5 -17 2 9 2 25 0 35 -3 9 -5 1 -5 -18z" />
        <path d="M864 8170 c0 -69 1 -97 3 -62 2 34 2 90 0 125 -2 34 -3 6 -3 -63z" />
        <path d="M9341 8254 c0 -11 3 -14 6 -6 3 7 2 16 -1 19 -3 4 -6 -2 -5 -13z" />
        <path d="M952 8240 c0 -14 2 -19 5 -12 2 6 2 18 0 25 -3 6 -5 1 -5 -13z" />
        <path d="M9431 8174 c0 -11 3 -14 6 -6 3 7 2 16 -1 19 -3 4 -6 -2 -5 -13z" />
        <path d="M9431 8104 c0 -11 3 -14 6 -6 3 7 2 16 -1 19 -3 4 -6 -2 -5 -13z" />
        <path d="M9341 8074 c0 -11 3 -14 6 -6 3 7 2 16 -1 19 -3 4 -6 -2 -5 -13z" />
        <path d="M952 8040 c0 -14 2 -19 5 -12 2 6 2 18 0 25 -3 6 -5 1 -5 -13z" />
        <path d="M9342 8025 c0 -16 2 -22 5 -12 2 9 2 23 0 30 -3 6 -5 -1 -5 -18z" />
        <path d="M863 7965 c0 -38 2 -53 4 -32 2 20 2 52 0 70 -2 17 -4 1 -4 -38z" />
        <path d="M951 7994 c0 -11 3 -14 6 -6 3 7 2 16 -1 19 -3 4 -6 -2 -5 -13z" />
        <path d="M9432 7990 c0 -14 2 -19 5 -12 2 6 2 18 0 25 -3 6 -5 1 -5 -13z" />
        <path d="M9431 7854 c0 -11 3 -14 6 -6 3 7 2 16 -1 19 -3 4 -6 -2 -5 -13z" />
        <path d="M862 7830 c0 -14 2 -19 5 -12 2 6 2 18 0 25 -3 6 -5 1 -5 -13z" />
        <path d="M951 7814 c0 -11 3 -14 6 -6 3 7 2 16 -1 19 -3 4 -6 -2 -5 -13z" />
        <path d="M864 7485 c0 -176 2 -247 3 -157 2 90 2 234 0 320 -1 86 -3 13 -3
-163z" />
        <path d="M9342 7760 c0 -14 2 -19 5 -12 2 6 2 18 0 25 -3 6 -5 1 -5 -13z" />
        <path d="M953 7650 c0 -25 2 -35 4 -22 2 12 2 32 0 45 -2 12 -4 2 -4 -23z" />
        <path d="M9341 7664 c0 -11 3 -14 6 -6 3 7 2 16 -1 19 -3 4 -6 -2 -5 -13z" />
        <path d="M9433 7520 c0 -30 2 -43 4 -27 2 15 2 39 0 55 -2 15 -4 2 -4 -28z" />
        <path d="M953 7475 c0 -27 2 -38 4 -22 2 15 2 37 0 50 -2 12 -4 0 -4 -28z" />
        <path d="M951 7374 c0 -11 3 -14 6 -6 3 7 2 16 -1 19 -3 4 -6 -2 -5 -13z" />
        <path d="M9341 7374 c0 -11 3 -14 6 -6 3 7 2 16 -1 19 -3 4 -6 -2 -5 -13z" />
        <path d="M952 7280 c0 -19 2 -27 5 -17 2 9 2 25 0 35 -3 9 -5 1 -5 -18z" />
        <path d="M9342 7280 c0 -14 2 -19 5 -12 2 6 2 18 0 25 -3 6 -5 1 -5 -13z" />
        <path d="M952 7190 c0 -19 2 -27 5 -17 2 9 2 25 0 35 -3 9 -5 1 -5 -18z" />
        <path d="M862 7135 c0 -16 2 -22 5 -12 2 9 2 23 0 30 -3 6 -5 -1 -5 -18z" />
        <path d="M9431 7074 c0 -11 3 -14 6 -6 3 7 2 16 -1 19 -3 4 -6 -2 -5 -13z" />
        <path d="M9431 7024 c0 -11 3 -14 6 -6 3 7 2 16 -1 19 -3 4 -6 -2 -5 -13z" />
        <path d="M862 7000 c0 -14 2 -19 5 -12 2 6 2 18 0 25 -3 6 -5 1 -5 -13z" />
        <path d="M9433 6945 c0 -27 2 -38 4 -22 2 15 2 37 0 50 -2 12 -4 0 -4 -28z" />
        <path d="M863 6915 c0 -33 2 -45 4 -27 2 18 2 45 0 60 -2 15 -4 0 -4 -33z" />
        <path d="M954 6885 c0 -49 1 -71 3 -48 2 23 2 64 0 90 -2 26 -3 8 -3 -42z" />
        <path d="M9342 6880 c0 -14 2 -19 5 -12 2 6 2 18 0 25 -3 6 -5 1 -5 -13z" />
        <path d="M862 6820 c0 -19 2 -27 5 -17 2 9 2 25 0 35 -3 9 -5 1 -5 -18z" />
        <path d="M9342 6820 c0 -14 2 -19 5 -12 2 6 2 18 0 25 -3 6 -5 1 -5 -13z" />
        <path d="M9431 6824 c0 -11 3 -14 6 -6 3 7 2 16 -1 19 -3 4 -6 -2 -5 -13z" />
        <path d="M9433 6755 c0 -22 2 -30 4 -17 2 12 2 30 0 40 -3 9 -5 -1 -4 -23z" />
        <path d="M862 6730 c0 -14 2 -19 5 -12 2 6 2 18 0 25 -3 6 -5 1 -5 -13z" />
        <path d="M862 6670 c0 -19 2 -27 5 -17 2 9 2 25 0 35 -3 9 -5 1 -5 -18z" />
        <path d="M9432 6580 c0 -19 2 -27 5 -17 2 9 2 25 0 35 -3 9 -5 1 -5 -18z" />
        <path d="M863 6525 c0 -44 2 -61 4 -37 2 23 2 59 0 80 -2 20 -4 1 -4 -43z" />
        <path d="M9341 6494 c0 -11 3 -14 6 -6 3 7 2 16 -1 19 -3 4 -6 -2 -5 -13z" />
        <path d="M9431 6434 c0 -11 3 -14 6 -6 3 7 2 16 -1 19 -3 4 -6 -2 -5 -13z" />
        <path d="M863 6365 c0 -44 2 -61 4 -37 2 23 2 59 0 80 -2 20 -4 1 -4 -43z" />
        <path d="M9433 6350 c0 -30 2 -43 4 -27 2 15 2 39 0 55 -2 15 -4 2 -4 -28z" />
        <path d="M953 6355 c0 -22 2 -30 4 -17 2 12 2 30 0 40 -3 9 -5 -1 -4 -23z" />
        <path d="M862 6245 c0 -16 2 -22 5 -12 2 9 2 23 0 30 -3 6 -5 -1 -5 -18z" />
        <path d="M861 6184 c0 -11 3 -14 6 -6 3 7 2 16 -1 19 -3 4 -6 -2 -5 -13z" />
        <path d="M862 6110 c0 -14 2 -19 5 -12 2 6 2 18 0 25 -3 6 -5 1 -5 -13z" />
        <path d="M9342 6100 c0 -14 2 -19 5 -12 2 6 2 18 0 25 -3 6 -5 1 -5 -13z" />
        <path d="M9431 6064 c0 -11 3 -14 6 -6 3 7 2 16 -1 19 -3 4 -6 -2 -5 -13z" />
        <path d="M864 5955 c0 -55 1 -76 3 -47 2 29 2 74 0 100 -2 26 -3 2 -3 -53z" />
        <path d="M9432 6020 c0 -14 2 -19 5 -12 2 6 2 18 0 25 -3 6 -5 1 -5 -13z" />
        <path d="M9433 5955 c0 -22 2 -30 4 -17 2 12 2 30 0 40 -3 9 -5 -1 -4 -23z" />
        <path d="M9433 5865 c0 -27 2 -38 4 -22 2 15 2 37 0 50 -2 12 -4 0 -4 -28z" />
        <path d="M9341 5874 c0 -11 3 -14 6 -6 3 7 2 16 -1 19 -3 4 -6 -2 -5 -13z" />
        <path d="M864 5730 c0 -52 1 -74 3 -47 2 26 2 68 0 95 -2 26 -3 4 -3 -48z" />
        <path d="M951 5784 c0 -11 3 -14 6 -6 3 7 2 16 -1 19 -3 4 -6 -2 -5 -13z" />
        <path d="M9431 5744 c0 -11 3 -14 6 -6 3 7 2 16 -1 19 -3 4 -6 -2 -5 -13z" />
        <path d="M9341 5704 c0 -11 3 -14 6 -6 3 7 2 16 -1 19 -3 4 -6 -2 -5 -13z" />
        <path d="M9432 5625 c0 -16 2 -22 5 -12 2 9 2 23 0 30 -3 6 -5 -1 -5 -18z" />
        <path d="M862 5610 c0 -14 2 -19 5 -12 2 6 2 18 0 25 -3 6 -5 1 -5 -13z" />
        <path d="M5370 5616 c-167 -47 -276 -191 -295 -391 -8 -87 13 -198 51 -264
126 -219 442 -276 657 -117 49 35 114 132 137 202 26 77 31 218 10 294 -36
133 -137 235 -269 274 -65 19 -225 20 -291 2z m201 -73 c99 -51 159 -180 162
-348 3 -249 -114 -410 -262 -360 -133 44 -205 225 -182 452 15 147 67 236 157
268 54 20 63 19 125 -12z" />
        <path d="M7611 5621 c-52 -3 -96 -10 -97 -16 -2 -5 18 -23 44 -40 33 -21 49
-39 53 -60 4 -16 7 -112 8 -212 1 -143 -2 -183 -12 -183 -14 0 -34 23 -215
248 -70 87 -148 182 -174 210 l-46 52 -116 0 c-104 0 -116 -2 -116 -17 1 -10
19 -30 41 -46 22 -15 44 -39 49 -53 6 -14 10 -154 10 -322 0 -277 -1 -299 -20
-329 -10 -18 -33 -39 -50 -48 -16 -8 -30 -20 -30 -25 0 -6 56 -10 140 -10 80
0 140 4 140 9 0 5 -14 20 -31 32 -55 39 -59 63 -59 335 0 228 1 245 17 233 16
-14 275 -356 402 -531 62 -87 64 -88 106 -88 l42 0 7 372 c8 413 8 411 76 452
18 10 28 22 23 26 -13 12 -91 17 -192 11z" />
        <path d="M1899 5611 c-117 -16 -206 -87 -229 -181 -14 -58 -7 -100 26 -157 30
-53 79 -86 227 -157 139 -67 167 -98 167 -182 0 -46 -4 -55 -30 -78 -39 -33
-85 -41 -151 -27 -90 20 -157 75 -204 169 -37 74 -51 64 -46 -35 5 -116 12
-146 42 -160 89 -43 288 -57 387 -28 67 20 130 69 159 124 18 34 23 60 23 113
0 126 -42 175 -236 269 -134 65 -214 128 -214 168 0 36 27 77 60 91 83 34 203
-13 274 -108 65 -86 81 -65 50 68 -8 38 -21 73 -27 78 -33 27 -186 45 -278 33z" />
        <path d="M2405 5613 c-45 -10 -46 -13 -13 -42 l33 -29 6 -274 c5 -259 6 -276
29 -333 29 -70 77 -121 145 -155 45 -22 63 -25 170 -25 112 0 124 2 178 28 38
19 69 44 92 74 61 80 68 118 72 398 2 144 8 262 14 277 6 15 27 36 46 48 19
11 31 25 28 30 -9 14 -262 13 -270 -1 -4 -5 11 -27 33 -47 27 -25 42 -49 47
-74 4 -20 5 -139 3 -265 -4 -244 -10 -276 -61 -332 -51 -55 -150 -67 -227 -28
-54 26 -85 70 -99 138 -14 63 -14 489 -1 524 5 14 26 35 45 46 60 36 41 44
-111 45 -76 1 -148 0 -159 -3z" />
        <path d="M3273 5604 c-4 -12 3 -24 23 -38 51 -37 73 -67 79 -109 3 -23 4 -157
2 -297 -4 -286 -10 -315 -74 -352 -18 -11 -33 -24 -33 -29 0 -5 63 -9 140 -9
77 0 140 4 140 9 0 5 -11 16 -25 25 -14 10 -35 31 -45 49 -18 29 -20 52 -20
280 0 136 4 247 9 247 18 0 92 -93 281 -352 l195 -268 42 0 43 0 0 348 c0 191
5 365 10 387 6 28 21 51 50 76 22 19 37 38 34 42 -11 10 -267 8 -283 -2 -11
-7 -4 -15 27 -35 71 -45 72 -47 72 -268 0 -109 -4 -198 -8 -198 -11 0 -141
152 -222 260 -66 88 -186 229 -205 242 -5 4 -59 8 -118 8 -91 0 -109 -3 -114
-16z" />
        <path d="M4230 5614 c0 -3 15 -20 34 -37 45 -43 49 -81 44 -444 l-3 -281 -24
-26 c-14 -14 -30 -26 -38 -26 -7 0 -13 -7 -13 -16 0 -15 23 -16 238 -12 258 6
323 17 404 73 70 48 99 155 64 238 -18 44 -76 93 -136 114 -57 20 -62 28 -22
36 64 13 128 78 138 139 20 122 -68 210 -237 237 -66 11 -449 15 -449 5z m429
-90 c59 -35 78 -154 35 -220 -22 -33 -75 -54 -137 -54 l-54 0 -6 132 c-7 167
-5 172 73 165 32 -3 72 -13 89 -23z m0 -377 c79 -39 103 -129 59 -217 -30 -57
-65 -82 -128 -88 -39 -4 -55 -1 -70 13 -18 17 -20 32 -20 173 l0 155 58 -7
c31 -4 77 -17 101 -29z" />
        <path d="M6055 5611 l-29 -6 25 -20 c47 -37 49 -50 49 -297 0 -252 7 -303 55
-398 50 -99 163 -147 323 -138 234 14 326 151 307 456 -4 56 -4 150 0 210 l7
107 40 38 c21 20 36 42 33 47 -8 13 -262 13 -270 1 -3 -5 10 -22 28 -38 69
-58 69 -54 65 -335 -3 -249 -3 -254 -28 -298 -45 -80 -135 -117 -223 -90 -61
18 -92 44 -119 98 -22 46 -23 55 -23 302 0 140 3 267 8 282 5 18 21 35 48 48
22 12 37 25 34 30 -7 11 -281 12 -330 1z" />
        <path d="M7890 5614 c0 -5 15 -24 34 -41 18 -18 36 -46 40 -64 3 -17 6 -164 6
-326 0 -320 -3 -343 -56 -378 -14 -9 -22 -20 -19 -25 8 -13 373 -13 453 0 111
18 171 47 239 115 53 53 64 71 81 131 29 97 34 162 22 241 -29 180 -143 297
-325 333 -75 15 -475 26 -475 14z m445 -102 c84 -43 128 -118 147 -252 20
-135 -16 -273 -89 -342 -58 -56 -164 -84 -214 -58 -18 10 -19 25 -19 339 0
180 3 331 8 335 13 14 127 -1 167 -22z" />
        <path d="M862 5550 c0 -19 2 -27 5 -17 2 9 2 25 0 35 -3 9 -5 1 -5 -18z" />
        <path d="M9432 5500 c0 -14 2 -19 5 -12 2 6 2 18 0 25 -3 6 -5 1 -5 -13z" />
        <path d="M862 5480 c0 -14 2 -19 5 -12 2 6 2 18 0 25 -3 6 -5 1 -5 -13z" />
        <path d="M9342 5440 c0 -14 2 -19 5 -12 2 6 2 18 0 25 -3 6 -5 1 -5 -13z" />
        <path d="M863 5415 c0 -22 2 -30 4 -17 2 12 2 30 0 40 -3 9 -5 -1 -4 -23z" />
        <path d="M9433 5405 c0 -27 2 -38 4 -22 2 15 2 37 0 50 -2 12 -4 0 -4 -28z" />
        <path d="M952 5420 c0 -14 2 -19 5 -12 2 6 2 18 0 25 -3 6 -5 1 -5 -13z" />
        <path d="M861 5354 c0 -11 3 -14 6 -6 3 7 2 16 -1 19 -3 4 -6 -2 -5 -13z" />
        <path d="M9342 5345 c0 -16 2 -22 5 -12 2 9 2 23 0 30 -3 6 -5 -1 -5 -18z" />
        <path d="M862 5300 c0 -19 2 -27 5 -17 2 9 2 25 0 35 -3 9 -5 1 -5 -18z" />
        <path d="M9342 5285 c0 -16 2 -22 5 -12 2 9 2 23 0 30 -3 6 -5 -1 -5 -18z" />
        <path d="M9432 5270 c0 -14 2 -19 5 -12 2 6 2 18 0 25 -3 6 -5 1 -5 -13z" />
        <path d="M9432 5210 c0 -14 2 -19 5 -12 2 6 2 18 0 25 -3 6 -5 1 -5 -13z" />
        <path d="M863 5160 c0 -30 2 -43 4 -27 2 15 2 39 0 55 -2 15 -4 2 -4 -28z" />
        <path d="M9342 5170 c0 -14 2 -19 5 -12 2 6 2 18 0 25 -3 6 -5 1 -5 -13z" />
        <path d="M863 5015 c0 -33 2 -45 4 -27 2 18 2 45 0 60 -2 15 -4 0 -4 -33z" />
        <path d="M9342 4975 c0 -16 2 -22 5 -12 2 9 2 23 0 30 -3 6 -5 -1 -5 -18z" />
        <path d="M862 4920 c0 -14 2 -19 5 -12 2 6 2 18 0 25 -3 6 -5 1 -5 -13z" />
        <path d="M9431 4894 c0 -11 3 -14 6 -6 3 7 2 16 -1 19 -3 4 -6 -2 -5 -13z" />
        <path d="M9343 4860 c0 -25 2 -35 4 -22 2 12 2 32 0 45 -2 12 -4 2 -4 -23z" />
        <path d="M864 4800 c0 -52 1 -74 3 -47 2 26 2 68 0 95 -2 26 -3 4 -3 -48z" />
        <path d="M9431 4734 c0 -11 3 -14 6 -6 3 7 2 16 -1 19 -3 4 -6 -2 -5 -13z" />
        <path d="M864 4535 c0 -93 2 -133 3 -88 2 45 2 122 0 170 -1 48 -3 12 -3 -82z" />
        <path d="M9342 4665 c0 -16 2 -22 5 -12 2 9 2 23 0 30 -3 6 -5 -1 -5 -18z" />
        <path d="M9343 4450 c0 -30 2 -43 4 -27 2 15 2 39 0 55 -2 15 -4 2 -4 -28z" />
        <path d="M5042 4432 c-164 -59 -272 -196 -292 -370 -28 -246 89 -433 298 -477
81 -18 202 -19 274 -4 57 12 157 58 176 82 7 8 15 69 18 147 7 127 8 134 36
165 15 18 28 35 28 39 0 8 -325 8 -333 -1 -4 -3 11 -26 33 -49 l40 -44 0 -124
c0 -146 -2 -148 -99 -148 -146 1 -240 106 -264 296 -30 233 64 421 217 434
107 9 200 -47 284 -171 41 -61 57 -54 49 22 -12 116 -26 158 -55 170 -75 29
-147 43 -247 47 -91 4 -119 2 -163 -14z" />
        <path d="M6710 4433 c-148 -26 -229 -109 -230 -231 0 -98 49 -151 230 -247
170 -90 200 -121 200 -205 0 -105 -148 -140 -276 -65 -46 27 -82 71 -115 139
-13 25 -29 46 -37 46 -12 0 -14 -18 -8 -107 8 -125 13 -132 105 -161 41 -12
90 -17 182 -17 124 0 127 0 195 35 95 49 125 93 132 194 4 63 1 82 -18 120
-30 63 -60 85 -230 172 -91 46 -159 86 -174 105 -36 43 -35 92 3 130 26 25 37
29 88 29 88 0 152 -34 205 -109 69 -96 87 -82 60 49 l-17 85 -50 16 c-51 17
-200 31 -245 22z" />
        <path d="M3200 4420 c0 -7 18 -29 41 -49 l41 -36 -1 -324 c-1 -351 -2 -358
-56 -383 -13 -6 -26 -17 -29 -24 -4 -12 28 -14 182 -14 l187 0 -37 33 c-21 17
-42 45 -48 60 -15 41 -13 192 3 204 6 6 53 13 102 16 146 8 244 59 291 150 25
48 30 158 10 211 -23 59 -90 120 -158 142 -68 22 -528 34 -528 14z m420 -79
c55 -26 74 -70 74 -171 0 -136 -43 -198 -143 -208 -81 -7 -81 -7 -81 199 0
206 3 213 73 203 23 -3 58 -14 77 -23z" />
        <path d="M4130 4424 c0 -3 11 -19 25 -36 16 -18 25 -42 25 -63 0 -18 -31 -120
-69 -226 -155 -431 -146 -410 -196 -455 -25 -22 -42 -43 -38 -47 11 -11 221
-8 228 4 4 5 -5 21 -20 35 -24 22 -26 29 -20 66 4 23 15 64 25 92 l17 51 139
0 139 0 23 -57 c38 -96 38 -110 3 -150 -17 -20 -31 -38 -31 -42 0 -3 81 -6
180 -6 99 0 180 3 180 7 0 3 -18 22 -40 41 -22 18 -47 47 -55 62 -8 15 -57
144 -110 286 -52 143 -110 300 -129 349 l-33 90 -122 3 c-66 1 -121 0 -121 -4z
m186 -387 c19 -55 31 -103 28 -108 -6 -10 -197 -13 -206 -4 -5 6 55 187 88
262 l16 38 20 -45 c11 -25 35 -89 54 -143z" />
        <path d="M5684 4418 c-4 -7 6 -23 27 -40 34 -28 34 -29 39 -129 3 -55 3 -210
0 -344 l-5 -244 -27 -28 c-16 -16 -28 -32 -28 -36 0 -4 135 -7 300 -7 l299 0
15 28 c18 35 56 159 56 183 0 36 -38 20 -102 -44 -70 -71 -131 -99 -223 -101
-83 -2 -85 1 -85 180 l0 154 31 0 c58 0 120 -22 156 -57 20 -18 40 -30 45 -25
4 4 11 53 14 107 6 84 4 102 -9 113 -13 11 -18 8 -36 -17 -27 -37 -94 -63
-152 -59 l-44 3 -3 141 c-3 167 -1 170 88 167 88 -4 160 -35 225 -100 70 -68
84 -62 68 25 -19 101 -35 128 -79 135 -73 12 -562 8 -570 -5z" />
        <path d="M864 4200 c0 -91 2 -128 3 -82 2 45 2 119 0 165 -1 45 -3 8 -3 -83z" />
        <path d="M9431 4274 c0 -11 3 -14 6 -6 3 7 2 16 -1 19 -3 4 -6 -2 -5 -13z" />
        <path d="M9341 4034 c0 -11 3 -14 6 -6 3 7 2 16 -1 19 -3 4 -6 -2 -5 -13z" />
        <path d="M862 4000 c0 -19 2 -27 5 -17 2 9 2 25 0 35 -3 9 -5 1 -5 -18z" />
        <path d="M952 3990 c0 -14 2 -19 5 -12 2 6 2 18 0 25 -3 6 -5 1 -5 -13z" />
        <path d="M864 3790 c0 -96 2 -136 3 -87 2 48 2 126 0 175 -1 48 -3 8 -3 -88z" />
        <path d="M9341 3774 c0 -11 3 -14 6 -6 3 7 2 16 -1 19 -3 4 -6 -2 -5 -13z" />
        <path d="M861 3594 c0 -11 3 -14 6 -6 3 7 2 16 -1 19 -3 4 -6 -2 -5 -13z" />
        <path d="M951 3584 c0 -11 3 -14 6 -6 3 7 2 16 -1 19 -3 4 -6 -2 -5 -13z" />
        <path d="M862 3540 c0 -14 2 -19 5 -12 2 6 2 18 0 25 -3 6 -5 1 -5 -13z" />
        <path d="M951 3484 c0 -11 3 -14 6 -6 3 7 2 16 -1 19 -3 4 -6 -2 -5 -13z" />
        <path d="M863 3455 c0 -22 2 -30 4 -17 2 12 2 30 0 40 -3 9 -5 -1 -4 -23z" />
        <path d="M953 2985 c0 -38 2 -53 4 -32 2 20 2 52 0 70 -2 17 -4 1 -4 -38z" />
        <path d="M863 2890 c0 -25 2 -35 4 -22 2 12 2 32 0 45 -2 12 -4 2 -4 -23z" />
        <path d="M863 2800 c0 -25 2 -35 4 -22 2 12 2 32 0 45 -2 12 -4 2 -4 -23z" />
        <path d="M9342 2800 c0 -14 2 -19 5 -12 2 6 2 18 0 25 -3 6 -5 1 -5 -13z" />
        <path d="M953 2775 c0 -22 2 -30 4 -17 2 12 2 30 0 40 -3 9 -5 -1 -4 -23z" />
        <path d="M862 2725 c0 -16 2 -22 5 -12 2 9 2 23 0 30 -3 6 -5 -1 -5 -18z" />
        <path d="M9342 2720 c0 -14 2 -19 5 -12 2 6 2 18 0 25 -3 6 -5 1 -5 -13z" />
        <path d="M863 2640 c0 -25 2 -35 4 -22 2 12 2 32 0 45 -2 12 -4 2 -4 -23z" />
        <path d="M951 2654 c0 -11 3 -14 6 -6 3 7 2 16 -1 19 -3 4 -6 -2 -5 -13z" />
        <path d="M863 2525 c0 -38 2 -53 4 -32 2 20 2 52 0 70 -2 17 -4 1 -4 -38z" />
        <path d="M952 2535 c0 -16 2 -22 5 -12 2 9 2 23 0 30 -3 6 -5 -1 -5 -18z" />
        <path d="M9432 2530 c0 -14 2 -19 5 -12 2 6 2 18 0 25 -3 6 -5 1 -5 -13z" />
        <path d="M9342 2505 c0 -16 2 -22 5 -12 2 9 2 23 0 30 -3 6 -5 -1 -5 -18z" />
        <path d="M951 2464 c0 -11 3 -14 6 -6 3 7 2 16 -1 19 -3 4 -6 -2 -5 -13z" />
        <path d="M9341 2444 c0 -11 3 -14 6 -6 3 7 2 16 -1 19 -3 4 -6 -2 -5 -13z" />
        <path d="M861 2424 c0 -11 3 -14 6 -6 3 7 2 16 -1 19 -3 4 -6 -2 -5 -13z" />
        <path d="M952 2390 c0 -14 2 -19 5 -12 2 6 2 18 0 25 -3 6 -5 1 -5 -13z" />
        <path d="M862 2375 c0 -16 2 -22 5 -12 2 9 2 23 0 30 -3 6 -5 -1 -5 -18z" />
        <path d="M9341 2194 c0 -11 3 -14 6 -6 3 7 2 16 -1 19 -3 4 -6 -2 -5 -13z" />
        <path d="M9342 2120 c0 -14 2 -19 5 -12 2 6 2 18 0 25 -3 6 -5 1 -5 -13z" />
        <path d="M951 2094 c0 -11 3 -14 6 -6 3 7 2 16 -1 19 -3 4 -6 -2 -5 -13z" />
        <path d="M952 1990 c0 -14 2 -19 5 -12 2 6 2 18 0 25 -3 6 -5 1 -5 -13z" />
        <path d="M951 1934 c0 -11 3 -14 6 -6 3 7 2 16 -1 19 -3 4 -6 -2 -5 -13z" />
        <path d="M862 1880 c0 -14 2 -19 5 -12 2 6 2 18 0 25 -3 6 -5 1 -5 -13z" />
        <path d="M952 1870 c0 -19 2 -27 5 -17 2 9 2 25 0 35 -3 9 -5 1 -5 -18z" />
        <path d="M953 1795 c0 -22 2 -30 4 -17 2 12 2 30 0 40 -3 9 -5 -1 -4 -23z" />
        <path d="M861 1684 c0 -11 3 -14 6 -6 3 7 2 16 -1 19 -3 4 -6 -2 -5 -13z" />
        <path d="M951 1584 c0 -11 3 -14 6 -6 3 7 2 16 -1 19 -3 4 -6 -2 -5 -13z" />
        <path d="M951 1484 c0 -11 3 -14 6 -6 3 7 2 16 -1 19 -3 4 -6 -2 -5 -13z" />
        <path d="M864 930 c0 -52 1 -74 3 -47 2 26 2 68 0 95 -2 26 -3 4 -3 -48z" />
        <path d="M4618 833 c7 -3 16 -2 19 1 4 3 -2 6 -13 5 -11 0 -14 -3 -6 -6z" />
        <path d="M7008 833 c7 -3 16 -2 19 1 4 3 -2 6 -13 5 -11 0 -14 -3 -6 -6z" />
        <path d="M8603 833 c9 -2 25 -2 35 0 9 3 1 5 -18 5 -19 0 -27 -2 -17 -5z" />
        <path d="M8688 833 c7 -3 16 -2 19 1 4 3 -2 6 -13 5 -11 0 -14 -3 -6 -6z" />
        <path d="M9028 833 c7 -3 16 -2 19 1 4 3 -2 6 -13 5 -11 0 -14 -3 -6 -6z" />
        <path d="M9223 833 c9 -2 23 -2 30 0 6 3 -1 5 -18 5 -16 0 -22 -2 -12 -5z" />
    </g>
</svg>
